Coordinates
version=1
nRows=43
nColumns=12
inDegrees=yes

Units are S.I. units (second, meters, Newtons, ...)
Angles are in degrees

endheader
time	SC_y	SC_z	SC_x	AC_y	AC_z	AC_x	GH_y	GH_z	GH_yy	EL_x	PS_y
       0.0              -33.37          6.658         0.9769          39.51          1.696          14.83           64.9          63.91          123.1          20.48          149.2
   0.02631              -33.37          6.656         0.9857          39.52          1.693          14.83           64.9          63.91          123.1          20.48          149.2
   0.05262              -33.37          6.654          0.995          39.52          1.691          14.83           64.9          63.91          123.1          20.47          149.2
   0.07892              -33.37          6.652          1.005          39.52          1.688          14.83          64.91           63.9          123.1          20.47          149.2
    0.1052              -33.38           6.65          1.015          39.53          1.685          14.82          64.91           63.9          123.0          20.47          149.2
    0.1315              -33.38          6.648          1.027          39.53          1.682          14.82          64.92           63.9          123.0          20.47          149.1
    0.1578              -33.38          6.646          1.039          39.54          1.679          14.81          64.92           63.9          123.0          20.46          149.1
    0.1842              -33.38          6.644          1.052          39.54          1.675          14.81          64.93          63.89          123.0          20.46          149.1
    0.2105              -33.38          6.641          1.065          39.54          1.672          14.81          64.93          63.89          122.9          20.46          149.1
    0.2368              -33.38          6.639           1.08          39.55          1.668           14.8          64.94          63.88          122.9          20.45          149.1
    0.2631              -33.38          6.636          1.096          39.56          1.663           14.8          64.94          63.88          122.9          20.45          149.1
    0.2894              -33.38          6.633          1.113          39.56          1.659          14.79          64.95          63.88          122.8          20.44          149.1
    0.3157              -33.38          6.629          1.132          39.57          1.654          14.79          64.96          63.87          122.8          20.44          149.1
     0.342              -33.38          6.626          1.151          39.57          1.649          14.78          64.96          63.87          122.7          20.44          149.1
    0.3683              -33.38          6.622          1.173          39.58          1.643          14.77          64.97          63.86          122.7          20.43          149.1
    0.3946              -33.38          6.617          1.196          39.59          1.636          14.77          64.98          63.86          122.6          20.42          149.1
    0.4209              -33.38          6.613          1.222           39.6           1.63          14.76          64.99          63.85          122.6          20.42          149.1
    0.4472              -33.38          6.608          1.249          39.61          1.622          14.75           65.0          63.84          122.5          20.41          149.1
    0.4735              -33.38          6.602          1.279          39.62          1.614          14.74          65.01          63.84          122.5           20.4          149.1
    0.4999              -33.38          6.596          1.312          39.63          1.605          14.73          65.03          63.83          122.4           20.4          149.1
    0.5262              -33.38           6.59          1.349          39.64          1.595          14.72          65.04          63.82          122.3          20.39          149.1
    0.5525              -33.38          6.582          1.389          39.66          1.585          14.71          65.06          63.81          122.2          20.38          149.1
    0.5788              -33.38          6.574          1.433          39.67          1.573          14.69          65.07           63.8          122.1          20.37          149.1
    0.6051              -33.38          6.565          1.482          39.69           1.56          14.68          65.09          63.79          122.0          20.36          149.0
    0.6314              -33.38          6.555          1.536          39.71          1.545          14.66          65.11          63.77          121.9          20.34          149.0
    0.6577              -33.38          6.544          1.597          39.73          1.529          14.64          65.14          63.76          121.8          20.33          149.0
     0.684              -33.38          6.532          1.664          39.75           1.51          14.62          65.16          63.74          121.6          20.31          149.0
    0.7103              -33.39          6.518          1.741          39.78           1.49           14.6          65.19          63.72          121.5          20.29          149.0
    0.7366              -33.39          6.502          1.827          39.81          1.466          14.57          65.23           63.7          121.3          20.27          149.0
    0.7629              -33.39          6.484          1.925          39.84           1.44          14.54          65.26          63.68          121.1          20.25          148.9
    0.7892              -33.39          6.464          2.037          39.88           1.41          14.51          65.31          63.65          120.8          20.22          148.9
    0.8156              -33.39           6.44          2.165          39.93          1.375          14.47          65.36          63.62          120.5          20.19          148.9
    0.8419              -33.39          6.413          2.313          39.98          1.335          14.42          65.42          63.58          120.2          20.16          148.8
    0.8682               -33.4          6.381          2.485          40.04          1.289          14.37          65.48          63.54          119.9          20.12          148.8
    0.8945               -33.4          6.345          2.687          40.11          1.235           14.3          65.56          63.49          119.4          20.07          148.8
    0.9208               -33.4          6.301          2.924          40.19          1.171          14.23          65.65          63.43          118.9          20.01          148.7
    0.9471              -33.41          6.249          3.207          40.29          1.095          14.14          65.76          63.36          118.3          19.94          148.6
    0.9734              -33.41          6.188          3.545          40.41          1.003          14.04          65.89          63.28          117.6          19.86          148.6
    0.9997              -33.42          6.113          3.954          40.55          0.893          13.91          66.05          63.18          116.7          19.76          148.5
     1.026              -33.42          6.021          4.454          40.72         0.7583          13.76          66.25          63.06          115.6          19.64          148.3
     1.052              -33.43          5.908          5.071          40.94          0.592          13.57          66.49          62.91          114.3          19.49          148.2
     1.079              -33.44          5.767           5.84           41.2         0.3846          13.33          66.79          62.72          112.6          19.31          148.0
     1.105              -33.46           5.59           6.81          41.54         0.1233          13.03          67.16          62.48          110.5          19.08          147.8
